<svg width="67" height="50" viewBox="0 0 67 50" fill="none" xmlns="http://www.w3.org/2000/svg">
<path d="M13.8186 34.6642C16.8456 33.7732 19.735 32.4682 22.4047 30.7861C22.0663 28.9737 21.943 27.1276 22.0374 25.2862C22.1529 22.3934 23.0353 19.5833 24.5942 17.1437C26.0589 15.0033 27.943 13.1825 30.1322 11.7917C31.0862 11.2622 32.4362 10.3845 32.4362 10.3845C31.3569 9.67264 30.2058 9.07628 29.0017 8.60527C25.9298 7.84683 16.8714 8.32384 11.0137 13.4946C5.15609 18.6654 1.23031 28.8733 0.438477 36.6533C4.97548 36.6999 9.49131 36.0286 13.8186 34.6642Z" fill="#E382D3"/>
<path d="M53.0955 34.6642C50.0684 33.7732 47.1791 32.4682 44.5093 30.7861C44.8478 28.9737 44.9711 27.1276 44.8766 25.2862C44.7625 22.3939 43.8818 19.5838 42.3246 17.1437C40.8598 15.0033 38.9758 13.1825 36.7866 11.7917C35.8325 11.2622 34.4826 10.3845 34.4826 10.3845C35.5619 9.67264 36.713 9.07628 37.9171 8.60527C40.989 7.84683 50.0474 8.32384 55.905 13.4946C61.7627 18.6654 65.6885 28.8733 66.4803 36.6533C61.9417 36.7004 57.4242 36.0291 53.0955 34.6642Z" fill="#E382D3"/>
<path d="M23.8644 32.2218C24.4436 34.5191 25.2423 36.7554 26.2494 38.8999C28.0999 42.9482 30.556 46.6911 33.5334 49.9999C37.5688 45.7068 41.6425 38.6519 43.2166 32.0406C43.6466 30.3078 43.8739 28.531 43.894 26.7458C43.894 20.435 41.1846 16.285 36.8629 12.9125C35.7937 12.0916 34.6789 11.3319 33.5238 10.6372C32.4516 11.2844 31.4135 11.9865 30.4137 12.7408C28.9128 13.8567 27.5669 15.1672 26.4116 16.638C24.351 19.3188 23.1632 22.5529 23.1632 26.7315C23.1792 28.5829 23.4145 30.4258 23.8644 32.2218Z" fill="#E382D3"/>
<path d="M24.4988 3.11486C18.188 1.82694 8.37121 0.930165 1.23517 0.729822C1.52614 2.80481 5.14664 7.36023 11.0902 8.9439C17.0337 10.5276 24.9663 4.95612 31.5443 8.88666C32.1244 9.27714 32.7489 9.59739 33.4046 9.84068C33.9785 9.59341 34.5306 9.2982 35.055 8.95821C41.3897 5.77657 50.014 10.5085 55.9575 8.92005C61.901 7.33161 65.2735 2.78095 65.5692 0.70597C58.4141 0.906313 48.6164 1.79832 42.3056 3.09101C42.6536 3.39538 42.9138 3.78738 43.0592 4.22629C41.7332 2.70464 37.6786 1.05419 33.4618 0C29.2021 1.04942 24.8757 2.82866 23.7213 4.4171C23.8275 3.90826 24.1013 3.44972 24.4988 3.11486Z" fill="#E382D3"/>
</svg>
