<svg width="45" height="46" viewBox="0 0 45 46" fill="none" xmlns="http://www.w3.org/2000/svg">
<path d="M42.4038 17.3751C41.3713 17.3761 40.3813 17.7931 39.6512 18.5346C38.9211 19.2761 38.5105 20.2816 38.5096 21.3302V27.4826C38.511 28.4549 38.8646 29.3928 39.5029 30.1175C40.1413 30.8422 41.0198 31.3031 41.9712 31.4123V34.0744H34.9775C34.6499 34.4045 34.2514 34.6529 33.8133 34.8001C33.3751 34.9472 32.9094 34.9891 32.4526 34.9223V43.3029C32.4526 43.4194 32.4982 43.5312 32.5793 43.6136C32.6605 43.696 32.7706 43.7423 32.8853 43.7423C33.0001 43.7423 33.1101 43.696 33.1913 43.6136C33.2724 43.5312 33.318 43.4194 33.318 43.3029V38.4689H41.9718V43.3029C41.9718 43.4194 42.0174 43.5312 42.0986 43.6136C42.1797 43.696 42.2898 43.7423 42.4045 43.7423C42.5193 43.7423 42.6294 43.696 42.7105 43.6136C42.7916 43.5312 42.8372 43.4194 42.8372 43.3029V17.8146C42.837 17.698 42.7913 17.5862 42.7101 17.5038C42.6288 17.4214 42.5187 17.3751 42.4038 17.3751ZM23.0608 9.76171C23.2282 9.75483 23.3926 9.7144 23.5446 9.64274C23.6965 9.57109 23.833 9.46963 23.9463 9.3442C24.0595 9.21878 24.1472 9.07185 24.2043 8.91188C24.2614 8.75191 24.2868 8.58205 24.2791 8.41207C24.2713 8.24208 24.2305 8.07534 24.1591 7.92142C24.0877 7.7675 23.987 7.62944 23.8628 7.51518C23.7386 7.40093 23.5935 7.31273 23.4356 7.25566C23.2778 7.19859 23.1104 7.17378 22.9431 7.18265L22.4668 7.20515L22.4446 6.7221C22.4378 6.55208 22.398 6.38509 22.3275 6.23075C22.2569 6.07641 22.157 5.93776 22.0335 5.82277C21.91 5.70778 21.7654 5.61872 21.6079 5.56071C21.4503 5.50271 21.2831 5.4769 21.1157 5.48478C20.9484 5.49266 20.7842 5.53407 20.6326 5.60662C20.4811 5.67917 20.3451 5.78144 20.2326 5.90754C20.1202 6.03363 20.0333 6.18108 19.9771 6.34139C19.9209 6.50169 19.8965 6.6717 19.9052 6.84163L20.0451 9.90374L23.0608 9.76171Z" fill="white"/>
<path d="M27.6923 6.36987C28.1702 6.36987 28.5577 5.97637 28.5577 5.49097C28.5577 5.00556 28.1702 4.61206 27.6923 4.61206C27.2144 4.61206 26.8269 5.00556 26.8269 5.49097C26.8269 5.97637 27.2144 6.36987 27.6923 6.36987Z" fill="white"/>
<path d="M20.7692 15.1777C21.2471 15.1777 21.6346 14.7842 21.6346 14.2988C21.6346 13.8134 21.2471 13.4199 20.7692 13.4199C20.2913 13.4199 19.9038 13.8134 19.9038 14.2988C19.9038 14.7842 20.2913 15.1777 20.7692 15.1777Z" fill="white"/>
<path d="M17.3076 4.63086C17.7856 4.63086 18.173 4.23736 18.173 3.75195C18.173 3.26655 17.7856 2.87305 17.3076 2.87305C16.8297 2.87305 16.4423 3.26655 16.4423 3.75195C16.4423 4.23736 16.8297 4.63086 17.3076 4.63086Z" fill="white"/>
<path d="M12.0281 34.9517C11.2744 34.9272 10.5578 34.6137 10.0225 34.0742H3.02884V31.4122C3.98018 31.3029 4.85871 30.842 5.49706 30.1173C6.1354 29.3927 6.48896 28.4548 6.49038 27.4824V21.3301C6.48946 20.2814 6.07888 19.276 5.34877 18.5344C4.61866 17.7929 3.62868 17.3759 2.59614 17.375C2.48139 17.375 2.37133 17.4213 2.29018 17.5037C2.20904 17.5861 2.16345 17.6979 2.16345 17.8145V43.3027C2.16345 43.4193 2.20904 43.5311 2.29018 43.6135C2.37133 43.6959 2.48139 43.7422 2.59614 43.7422C2.7109 43.7422 2.82096 43.6959 2.9021 43.6135C2.98325 43.5311 3.02884 43.4193 3.02884 43.3027V38.4688H11.6827V43.3027C11.6827 43.4193 11.7283 43.5311 11.8094 43.6135C11.8906 43.6959 12.0006 43.7422 12.1154 43.7422C12.2301 43.7422 12.3402 43.6959 12.4213 43.6135C12.5025 43.5311 12.5481 43.4193 12.5481 43.3027V34.9222C12.4068 34.9428 12.2643 34.9531 12.1216 34.9531L12.0281 34.9517Z" fill="white"/>
<path d="M32.9455 34.073C34.1044 34.0407 35.0481 33.031 35.0481 31.8216V21.9012C35.047 20.9341 34.6682 20.0069 33.9949 19.3231C33.3215 18.6392 32.4086 18.2545 31.4564 18.2534H30.2884V14.7005C30.893 14.5959 31.4416 14.2776 31.8375 13.802C32.2334 13.3263 32.451 12.7239 32.4519 12.1011V9.0249C32.4519 8.90835 32.4063 8.79658 32.3252 8.71416C32.244 8.63175 32.134 8.58545 32.0192 8.58545H27.6923C27.5775 8.58545 27.4675 8.63175 27.3863 8.71416C27.3052 8.79658 27.2596 8.90835 27.2596 9.0249V12.1011C27.2605 12.7239 27.4781 13.3263 27.874 13.802C28.2699 14.2776 28.8185 14.5959 29.4231 14.7005V18.2534H14.7115V14.7005C15.316 14.5959 15.8647 14.2776 16.2606 13.802C16.6564 13.3263 16.8741 12.7239 16.875 12.1011V9.0249C16.875 8.90835 16.8294 8.79658 16.7482 8.71416C16.6671 8.63175 16.557 8.58545 16.4423 8.58545H12.1154C12.0006 8.58545 11.8906 8.63175 11.8094 8.71416C11.7283 8.79658 11.6827 8.90835 11.6827 9.0249V12.1011C11.6836 12.7239 11.9012 13.3263 12.2971 13.802C12.693 14.2776 13.2416 14.5959 13.8461 14.7005V18.2534H13.5429C12.5907 18.2545 11.6779 18.6392 11.0047 19.3231C10.3314 20.007 9.95282 20.9342 9.9519 21.9012V31.8216C9.9519 33.0303 10.8948 34.0407 12.0544 34.073C12.3438 34.0826 12.6321 34.0324 12.9019 33.9256C13.1716 33.8187 13.4173 33.6575 13.6239 33.4515C14.0462 33.0338 14.2788 32.4748 14.2788 31.8765V23.9663C14.2788 23.8498 14.3244 23.738 14.4056 23.6556C14.4867 23.5732 14.5968 23.5269 14.7115 23.5269C14.8263 23.5269 14.9363 23.5732 15.0175 23.6556C15.0986 23.738 15.1442 23.8498 15.1442 23.9663V31.8765C15.1442 33.0879 16.1148 34.0737 17.3077 34.0737C18.5005 34.0737 19.4711 33.0879 19.4711 31.8765V21.3296C19.4711 21.213 19.5167 21.1013 19.5979 21.0188C19.679 20.9364 19.7891 20.8901 19.9038 20.8901C20.0186 20.8901 20.1286 20.9364 20.2098 21.0188C20.2909 21.1013 20.3365 21.213 20.3365 21.3296V31.8765C20.3365 33.0879 21.3071 34.0737 22.5 34.0737C23.6928 34.0737 24.6634 33.0879 24.6634 31.8765V28.3608C24.6634 28.2443 24.709 28.1325 24.7902 28.0501C24.8713 27.9677 24.9814 27.9214 25.0961 27.9214C25.2109 27.9214 25.3209 27.9677 25.4021 28.0501C25.4832 28.1325 25.5288 28.2443 25.5288 28.3608V31.8765C25.5288 33.0879 26.4994 34.0737 27.6923 34.0737C28.8851 34.0737 29.8558 33.0879 29.8558 31.8765V23.0874C29.8558 22.9709 29.9013 22.8591 29.9825 22.7767C30.0636 22.6942 30.1737 22.6479 30.2884 22.6479C30.4032 22.6479 30.5133 22.6942 30.5944 22.7767C30.6755 22.8591 30.7211 22.9709 30.7211 23.0874V31.8765C30.7211 32.4748 30.9538 33.0338 31.3761 33.4515C31.7984 33.8691 32.355 34.0906 32.9455 34.073ZM26.8269 42.8635H23.7981V34.6552C23.4041 34.8458 22.9645 34.9526 22.5 34.9526C22.0354 34.9526 21.5958 34.8458 21.2019 34.6552V42.8628H18.1731C18.0583 42.8628 17.9482 42.9091 17.8671 42.9915C17.786 43.0739 17.7404 43.1857 17.7404 43.3022C17.7404 43.4188 17.786 43.5306 17.8671 43.613C17.9482 43.6954 18.0583 43.7417 18.1731 43.7417H26.8269C26.9386 43.7372 27.0442 43.6889 27.1216 43.6071C27.199 43.5252 27.2423 43.4161 27.2423 43.3026C27.2423 43.1891 27.199 43.08 27.1216 42.9981C27.0442 42.9163 26.9386 42.868 26.8269 42.8635Z" fill="white"/>
</svg>
