<svg width="25" height="20" viewBox="0 0 25 20" fill="none" xmlns="http://www.w3.org/2000/svg">
<path d="M5.065 13.8658C6.21088 13.5094 7.30465 12.9874 8.31527 12.3146C8.18715 11.5896 8.14048 10.8511 8.17623 10.1146C8.21996 8.95747 8.55399 7.83342 9.14409 6.85758C9.69858 6.00141 10.4118 5.27309 11.2405 4.71677C11.6016 4.50498 12.1127 4.1539 12.1127 4.1539C11.7041 3.86916 11.2683 3.63061 10.8126 3.44221C9.64968 3.13883 6.22065 3.32963 4.00325 5.39794C1.78584 7.46624 0.299747 11.5494 0 14.6614C1.71747 14.6801 3.42693 14.4115 5.065 13.8658Z" fill="#E382D3"/>
<path d="M19.9332 13.8658C18.7873 13.5094 17.6935 12.9874 16.6829 12.3146C16.811 11.5896 16.8577 10.8511 16.822 10.1146C16.7788 8.95765 16.4454 7.83361 15.8559 6.85758C15.3014 6.00141 14.5882 5.27309 13.7595 4.71677C13.3983 4.50498 12.8873 4.1539 12.8873 4.1539C13.2959 3.86916 13.7317 3.63061 14.1874 3.44221C15.3503 3.13883 18.7793 3.32963 20.9968 5.39794C23.2142 7.46624 24.7002 11.5494 25 14.6614C23.2819 14.6803 21.5718 14.4117 19.9332 13.8658Z" fill="#E382D3"/>
<path d="M8.86786 12.8887C9.08712 13.8077 9.38946 14.7022 9.77071 15.56C10.4712 17.1793 11.4009 18.6764 12.528 20C14.0556 18.2827 15.5977 15.4608 16.1936 12.8162C16.3564 12.1231 16.4424 11.4124 16.45 10.6983C16.45 8.17398 15.4244 6.51399 13.7884 5.16501C13.3837 4.83664 12.9617 4.53278 12.5244 4.25488C12.1185 4.51375 11.7255 4.7946 11.3471 5.09633C10.7789 5.54266 10.2694 6.06688 9.8321 6.65519C9.05204 7.7275 8.60242 9.02115 8.60242 10.6926C8.60845 11.4331 8.69756 12.1703 8.86786 12.8887Z" fill="#E382D3"/>
<path d="M9.10799 1.24594C6.71905 0.730776 3.00291 0.372066 0.301575 0.291929C0.411723 1.12192 1.78225 2.94409 4.03216 3.57756C6.28207 4.21103 9.28496 1.98245 11.775 3.55466C11.9946 3.71086 12.231 3.83895 12.4792 3.93627C12.6965 3.83736 12.9055 3.71928 13.104 3.58328C15.502 2.31063 18.7667 4.20339 21.0166 3.56802C23.2665 2.93264 24.5431 1.11238 24.6551 0.282388C21.9465 0.362525 18.2376 0.719327 15.8487 1.2364C15.9804 1.35815 16.079 1.51495 16.134 1.69052C15.632 1.08185 14.0972 0.421675 12.5009 0C10.8884 0.419767 9.25064 1.13146 8.81366 1.76684C8.85386 1.5633 8.95749 1.37989 9.10799 1.24594Z" fill="#E382D3"/>
</svg>
