<svg width="28" height="26" viewBox="0 0 28 26" fill="none" xmlns="http://www.w3.org/2000/svg">
<path d="M23.9786 23.9184H3.18182C1.68412 23.9184 1.0515 23.2785 2.25527 22.3859L6.29317 19.3886C6.56112 19.1897 6.88599 19.0823 7.21972 19.0823H19.7859C20.1099 19.0825 20.4258 19.1839 20.6893 19.3724L24.8825 22.3697C26.1124 23.2485 25.4906 23.9184 23.9786 23.9184Z" fill="white"/>
<path d="M13.1965 1.69629C10.3289 1.69629 8.00446 4.02077 8.00446 6.88834C8.00446 9.75592 11.5308 17.3598 13.1965 17.3598C14.8622 17.3598 18.3886 9.75538 18.3886 6.88861C18.3886 4.02185 16.0641 1.69629 13.1965 1.69629ZM13.1965 8.73929C12.8131 8.73929 12.4384 8.62561 12.1196 8.41263C11.8009 8.19964 11.5524 7.89692 11.4057 7.54274C11.259 7.18855 11.2206 6.79882 11.2954 6.42282C11.3702 6.04683 11.5548 5.70145 11.8259 5.43037C12.097 5.15929 12.4424 4.97468 12.8184 4.89989C13.1944 4.8251 13.5841 4.86349 13.9383 5.01019C14.2925 5.1569 14.5952 5.40534 14.8082 5.7241C15.0211 6.04285 15.1348 6.41761 15.1348 6.80097C15.1348 7.31505 14.9306 7.80807 14.5671 8.17157C14.2036 8.53508 13.7106 8.73929 13.1965 8.73929Z" fill="white"/>
</svg>
