<svg width="30" height="35" viewBox="0 0 30 35" fill="none" xmlns="http://www.w3.org/2000/svg">
<path opacity="0.9" d="M10.4321 8.68146C12.488 7.17372 14.6548 5.87426 16.9064 4.79856C21.052 2.77288 25.4232 1.43871 29.8808 0.838598C29.1532 8.71515 26.8528 16.3424 23.1544 23.1407C22.1601 24.9444 21 26.6265 19.6941 28.158C17.8166 30.4551 15.4996 32.2341 12.9292 33.3521C10.3588 34.4701 7.60663 34.896 4.89389 34.5954C3.58826 34.4994 2.29049 34.3171 1.00717 34.0494C0.769329 32.7055 0.595099 31.3466 0.485219 29.9783C0.305815 27.9016 0.371415 25.8007 0.680252 23.7306C1.37093 19.5831 3.20587 15.7616 5.91893 12.8205C7.28947 11.2623 8.80283 9.87438 10.4321 8.68146Z" fill="white"/>
</svg>
