<svg width="46" height="46" viewBox="0 0 46 46" fill="none" xmlns="http://www.w3.org/2000/svg">
<path d="M28.5691 9.32924C28.5691 11.4386 25.6066 12.9105 24.9878 13.1917C24.6503 13.023 24.3316 12.8355 24.0503 12.6386C24.2269 12.2731 24.2906 11.8634 24.2335 11.4615C24.1763 11.0597 24.0007 10.684 23.7292 10.3823C23.4577 10.0806 23.1025 9.86658 22.7088 9.76753C22.3152 9.66848 21.901 9.68887 21.5191 9.82611C21.3882 9.40643 21.4044 8.95466 21.565 8.54544C21.7256 8.13622 22.021 7.79405 22.4025 7.57547C22.7839 7.35689 23.2285 7.27498 23.6628 7.34328C24.097 7.41158 24.495 7.626 24.7909 7.95111C24.857 8.01307 24.9441 8.04755 25.0347 8.04755C25.1252 8.04755 25.2124 8.01307 25.2784 7.95111C25.6421 7.5893 26.1342 7.38618 26.6472 7.38618C27.1602 7.38618 27.6523 7.5893 28.0159 7.95111C28.374 8.32012 28.5726 8.81508 28.5691 9.32924Z" fill="white"/>
<path d="M23.5347 11.8417C23.5347 13.5574 21.0784 14.7761 20.6472 15.0105C15.219 12.2636 18.6878 9.048 20.3753 10.7636C20.4485 10.8335 20.5459 10.8725 20.6472 10.8725C20.7484 10.8725 20.8458 10.8335 20.919 10.7636C21.134 10.5522 21.4063 10.4086 21.7022 10.3508C21.9981 10.2929 22.3045 10.3233 22.5832 10.4382C22.8619 10.5531 23.1007 10.7474 23.2699 10.9969C23.4391 11.2465 23.5312 11.5403 23.5347 11.8417Z" fill="white"/>
<path d="M22.1003 37.1448C20.3911 38.3443 18.3883 39.0572 16.3056 39.2074C14.223 39.3576 12.1386 38.9395 10.275 37.9977C8.41136 37.0559 6.83845 35.6257 5.72414 33.8598C4.60982 32.0939 3.99591 30.0585 3.94793 27.971C3.89995 25.8835 4.41971 23.8221 5.45172 22.0069C6.48374 20.1916 7.98927 18.6907 9.80765 17.6642C11.626 16.6378 13.689 16.1243 15.7764 16.1787C17.8638 16.2331 19.8972 16.8532 21.6597 17.9729C21.0783 18.4513 20.5417 18.9816 20.0566 19.5573C18.0666 18.4164 15.7274 18.0446 13.4817 18.5124C11.2361 18.9801 9.23988 20.255 7.87096 22.0955C6.50204 23.9361 5.85543 26.2147 6.05352 28.5C6.25161 30.7853 7.28067 32.9186 8.94589 34.4962C10.6111 36.0737 12.7969 36.9861 15.0896 37.0604C17.3822 37.1348 19.6225 36.3661 21.3865 34.8997C23.1504 33.4334 24.3156 31.3712 24.6614 29.1036C25.0071 26.836 24.5096 24.5202 23.2628 22.5948C23.7245 22.0001 24.2673 21.4731 24.8753 21.0292C25.7542 22.2685 26.3797 23.6692 26.7159 25.1509C27.0522 26.6325 27.0925 28.166 26.8347 29.6633C26.5769 31.1606 26.0259 32.5923 25.2135 33.8761C24.401 35.16 23.3431 36.2708 22.1003 37.1448Z" fill="white"/>
<path d="M36.3972 37.1166C34.5205 38.4308 32.2951 39.1567 30.0045 39.2018C27.7138 39.2468 25.4616 38.6091 23.5347 37.3698C24.1228 36.8888 24.6628 36.352 25.1472 35.7667C27.1387 36.9054 29.4787 37.2743 31.724 36.8036C33.9694 36.3329 35.9641 35.0553 37.3307 33.2126C38.6973 31.3699 39.3408 29.0901 39.1393 26.8048C38.9379 24.5196 37.9055 22.3875 36.2376 20.8123C34.5698 19.2371 32.3822 18.3281 30.0892 18.2575C27.7962 18.1869 25.5568 18.9595 23.7952 20.429C22.0335 21.8986 20.8719 23.9631 20.5301 26.2316C20.1884 28.5001 20.6904 30.8152 21.9409 32.7385C21.4762 33.3305 20.9338 33.8571 20.3284 34.3041C19.015 32.4349 18.2855 30.2181 18.232 27.9342C18.1786 25.6503 18.8037 23.4018 20.0282 21.4732C21.2527 19.5446 23.0216 18.0224 25.1113 17.0992C27.201 16.1759 29.5175 15.8932 31.7679 16.2866C34.0183 16.68 36.1015 17.732 37.754 19.3094C39.4065 20.8869 40.5541 22.9189 41.0517 25.1486C41.5492 27.3783 41.3743 29.7055 40.5492 31.8358C39.724 33.9661 38.2856 35.8039 36.4159 37.1166H36.3972Z" fill="white"/>
</svg>
