<svg width="25" height="21" viewBox="0 0 25 21" fill="none" xmlns="http://www.w3.org/2000/svg">
<path d="M19.9391 5.96207C18.8151 6.25347 17.7263 6.69038 16.6951 7.26373C16.8228 7.86829 16.8696 8.49026 16.834 9.10981C16.7788 10.1132 16.4385 11.0718 15.8616 11.8492C15.2763 12.5945 14.5637 13.205 13.7647 13.6458C13.4085 13.824 12.8932 14.1185 12.8932 14.1185C13.3089 14.3607 13.7439 14.5604 14.1926 14.7149C15.3553 14.9623 18.783 14.8089 20.9987 13.0742C23.2144 11.3395 24.6998 7.90961 25 5.29887C23.2943 5.28075 21.5936 5.50362 19.9391 5.96207Z" fill="#E382D3"/>
<path d="M5.06541 5.96212C6.18935 6.25352 7.27822 6.69043 8.30943 7.26378C8.18171 7.86834 8.13492 8.49031 8.17053 9.10986C8.22571 10.1132 8.56594 11.0718 9.14284 11.8493C9.72817 12.5945 10.4407 13.205 11.2398 13.6459C11.596 13.824 12.1113 14.1185 12.1113 14.1185C11.6956 14.3608 11.2606 14.5604 10.8119 14.7149C9.64916 14.9624 6.22143 14.8089 4.00573 13.0742C1.79003 11.3395 0.302446 7.91213 0 5.29892C1.70717 5.28038 3.40947 5.50325 5.06541 5.96212Z" fill="#E382D3"/>
<path d="M16.1304 6.78138C15.9092 5.99752 15.6086 5.24376 15.2343 4.53442C14.5039 3.13531 13.5725 1.87663 12.4764 0.807617C10.9508 2.25033 9.40717 4.61855 8.81124 6.8383C8.64954 7.41485 8.56354 8.01404 8.55585 8.61756C8.55585 10.7358 9.58192 12.1291 11.2151 13.2575C11.6235 13.536 12.0445 13.7913 12.4764 14.0222C12.8954 13.797 13.2875 13.5619 13.6526 13.3144C14.2064 12.9519 14.7154 12.5119 15.1671 12.0053C15.5671 11.5599 15.8821 11.0303 16.0933 10.448C16.3046 9.86563 16.4079 9.24235 16.397 8.61508C16.3892 7.9928 16.2994 7.37509 16.1304 6.78138Z" fill="#E382D3"/>
<path d="M13.796 18.1544C13.713 18.4958 13.5997 18.8274 13.4577 19.1442C13.1919 19.7545 12.8419 20.3154 12.4204 20.8072C11.7674 20.0493 11.2934 19.1255 11.0404 18.1173C10.9791 17.8578 10.9468 17.591 10.944 17.3229C10.944 16.3776 11.3294 15.7564 11.9455 15.2541C12.0979 15.1306 12.2565 15.0166 12.4204 14.9126C12.5745 15.0089 12.7241 15.1138 12.8685 15.2269C13.0815 15.3927 13.2736 15.5891 13.4398 15.8109C13.7524 16.2378 13.9168 16.774 13.9035 17.3229C13.8994 17.6039 13.8633 17.8833 13.796 18.1544Z" fill="#E382D3"/>
<path d="M7.05483 15.8337C8.29598 15.0047 9.34671 15.1408 10.4534 15.6604C10.3571 16.9844 9.98072 18.0782 8.73957 18.9072C7.49842 19.7362 5.49108 20.0232 4.20288 19.8426C4.68455 18.4444 5.81368 16.6627 7.05483 15.8337Z" fill="#E382D3"/>
<path d="M17.9474 15.8213C16.6704 15.0591 15.6264 15.2546 14.5443 15.8213C14.7011 17.1378 15.1246 18.2093 16.4016 18.9715C17.6785 19.7337 19.6949 19.9069 20.9741 19.657C20.4342 18.2984 19.2244 16.581 17.9474 15.8213Z" fill="#E382D3"/>
</svg>
