<svg width="31" height="31" viewBox="0 0 31 31" fill="none" xmlns="http://www.w3.org/2000/svg">
<g clip-path="url(#clip0_184_727)">
<path d="M9.2641 22.2231C6.4543 21.9693 4.5781 20.5494 3.5266 17.919C4.4665 18.0303 5.3377 18.054 6.2392 17.8041C2.5627 16.8669 1.2574 13.5801 1.423 11.6937C2.254 12.1137 3.1159 12.3924 4.1434 12.4173C2.5978 11.2926 1.7134 9.85167 1.4818 8.04627C1.3099 6.69807 1.5796 5.41857 2.2756 4.20627C5.6116 8.13237 9.8242 10.3005 14.9356 10.6431C14.9137 10.0227 14.8612 9.43767 14.878 8.85477C14.95 6.33867 16.8946 3.92007 19.3363 3.29787C21.6245 2.71407 23.6332 3.22997 25.3624 4.84557C25.4485 4.92567 25.6228 4.97367 25.7383 4.94997C26.929 4.70704 28.0746 4.28023 29.134 3.68487C29.2099 3.64257 29.2888 3.60597 29.4232 3.53787C28.9549 4.97787 28.078 6.03447 26.89 6.86607C28.0414 6.75597 29.1268 6.42957 30.1843 5.99457L30.25 6.06747C29.7541 6.64827 29.2831 7.25277 28.7545 7.80207C28.3345 8.23737 27.8392 8.59767 27.3928 9.00807C27.2938 9.09807 27.2047 9.26067 27.2044 9.38997C27.1975 15.7473 24.694 20.8548 19.5196 24.5781C17.3368 26.1501 14.8432 26.9994 12.1771 27.3501C9.6571 27.6801 7.1746 27.5217 4.7311 26.8191C3.19701 26.3765 1.7327 25.7206 0.3811 24.8706C0.335495 24.836 0.291735 24.799 0.25 24.7599C1.8952 24.9123 3.463 24.8025 5.0029 24.3699C6.54913 23.9375 7.99643 23.2084 9.2641 22.2231Z" fill="#E382D3"/>
</g>
<defs>
<clipPath id="clip0_184_727">
<rect width="30" height="30" fill="white" transform="translate(0.25 0.290039)"/>
</clipPath>
</defs>
</svg>
