<svg width="13" height="16" viewBox="0 0 13 16" fill="none" xmlns="http://www.w3.org/2000/svg">
<path opacity="0.9" d="M2.21869 5.74114C1.72324 6.75669 1.31384 7.82223 0.996115 8.92303C0.385745 10.9863 0.053223 13.1372 0.0100291 15.3018C2.94756 14.956 5.78297 13.8138 8.27767 11.9712C8.91977 11.4878 9.51179 10.9223 10.0418 10.2859C11.8956 8.01351 12.2641 5.6357 11.9037 3.01459C11.8125 2.37096 11.6893 1.73442 11.5346 1.10802C11.012 0.990855 10.4838 0.904628 9.95223 0.849688C9.15939 0.761405 8.35769 0.793723 7.56821 0.945796C6.03433 1.26683 4.63342 2.1751 3.59939 3.51891C3.0646 4.19658 2.60111 4.94254 2.21869 5.74114Z" fill="white"/>
</svg>
