<svg width="13" height="16" viewBox="0 0 13 16" fill="none" xmlns="http://www.w3.org/2000/svg">
<path opacity="0.9" d="M10.3165 5.74114C10.8189 6.75669 11.2341 7.82223 11.5564 8.92303C12.1754 10.9863 12.5126 13.1372 12.5564 15.3018C9.57728 14.956 6.70172 13.8138 4.17168 11.9712C3.52048 11.4878 2.92008 10.9223 2.38253 10.2859C0.502517 8.01351 0.128749 5.6357 0.49429 3.01459C0.5868 2.37096 0.711769 1.73442 0.8686 1.10802C1.39866 0.990855 1.93432 0.904628 2.47339 0.849688C3.27746 0.761405 4.09052 0.793723 4.89119 0.945796C6.44679 1.26683 7.86755 2.1751 8.91623 3.51891C9.45859 4.19658 9.92864 4.94254 10.3165 5.74114Z" fill="white"/>
</svg>
