<svg width="30" height="35" viewBox="0 0 30 35" fill="none" xmlns="http://www.w3.org/2000/svg">
<path opacity="0.9" d="M19.7834 8.68146C17.7562 7.17372 15.6197 5.87426 13.3996 4.79856C9.31185 2.77288 5.0017 1.43871 0.606396 0.838597C1.32378 8.71515 3.59205 16.3424 7.23882 23.1407C8.21921 24.9444 9.36311 26.6265 10.6508 28.158C12.5021 30.4551 14.7867 32.2341 17.3212 33.3521C19.8557 34.4701 22.5694 34.896 25.2443 34.5954C26.5317 34.4994 27.8113 34.3171 29.0767 34.0494C29.3113 32.7055 29.483 31.3466 29.5914 29.9783C29.7683 27.9016 29.7036 25.8007 29.3991 23.7306C28.718 19.5831 26.9087 15.7616 24.2336 12.8205C22.8822 11.2623 21.3899 9.87438 19.7834 8.68146Z" fill="white"/>
</svg>
