<svg width="31" height="31" viewBox="0 0 31 31" fill="none" xmlns="http://www.w3.org/2000/svg">
<g clip-path="url(#clip0_184_725)">
<path d="M21.8269 10.2134L21.3055 15.35C20.3242 15.35 19.4023 15.35 18.4807 15.3485C18.3763 15.3485 18.2725 15.3212 18.1678 15.314C17.4529 15.2651 17.3923 15.3317 17.3932 16.0424C17.399 20.6624 17.4021 25.283 17.4025 29.9042C17.4025 30.0242 17.3887 30.1415 17.3794 30.2903H11.5552C11.5432 30.0911 11.5252 29.9231 11.5252 29.7551C11.5236 25.4671 11.5242 21.179 11.527 16.8908C11.527 16.5608 11.5711 16.2281 11.587 15.8966C11.6056 15.4931 11.4544 15.2945 11.0029 15.3137C10.237 15.3461 9.46866 15.3227 8.67456 15.3227V10.2605C9.45696 10.2605 10.1719 10.2461 10.8862 10.2656C11.3662 10.2788 11.5486 10.1264 11.5462 9.60294C11.5438 8.20494 11.4907 6.78984 11.6824 5.41284C12.0757 2.58894 13.2943 0.899639 16.4224 0.566939C18.1708 0.380039 19.9396 0.380039 21.7705 0.290039V5.48394C21.2071 5.48394 20.7025 5.46444 20.2 5.48874C19.5565 5.51874 18.91 5.55144 18.2743 5.64924C17.8408 5.71584 17.5489 6.03684 17.5282 6.48594C17.4754 7.62054 17.4562 8.75664 17.4295 9.89244C17.4196 10.3142 17.7457 10.2374 17.9923 10.2371C19.0597 10.2356 20.1274 10.2221 21.1948 10.2134C21.3829 10.2119 21.5707 10.2134 21.8269 10.2134Z" fill="#E382D3"/>
</g>
<defs>
<clipPath id="clip0_184_725">
<rect width="30" height="30" fill="white" transform="translate(0.25 0.290039)"/>
</clipPath>
</defs>
</svg>
