<svg width="70" height="52" viewBox="0 0 70 52" fill="none" xmlns="http://www.w3.org/2000/svg">
<path d="M55.0606 13.7173C51.957 14.4615 48.9501 15.5774 46.1025 17.0416C46.4552 18.5856 46.5844 20.174 46.486 21.7563C46.3337 24.3188 45.3941 26.767 43.801 28.7525C42.1847 30.6557 40.217 32.2149 38.0104 33.3408C37.0267 33.7958 35.6038 34.5479 35.6038 34.5479C36.7518 35.1666 37.9529 35.6764 39.192 36.071C42.4029 36.703 51.8684 36.3111 57.9869 31.8808C64.1054 27.4506 68.2072 18.6911 69.0362 12.0236C64.326 11.9773 59.6294 12.5465 55.0606 13.7173Z" fill="#E382D3"/>
<path d="M13.9879 13.717C17.0916 14.4612 20.0984 15.577 22.946 17.0413C22.5934 18.5852 22.4641 20.1737 22.5625 21.7559C22.7149 24.3184 23.6544 26.7666 25.2475 28.7521C26.8638 30.6553 28.8315 32.2145 31.0381 33.3404C32.0218 33.7954 33.4447 34.5475 33.4447 34.5475C32.2967 35.1662 31.0956 35.676 29.8565 36.0706C26.6456 36.7026 17.1802 36.3107 11.0616 31.8805C4.94309 27.4502 0.835189 18.6971 0 12.0232C4.71426 11.9759 9.41507 12.5451 13.9879 13.717Z" fill="#E382D3"/>
<path d="M44.5434 15.8091C43.9325 13.8072 43.1024 11.8822 42.0687 10.0706C40.0517 6.4974 37.4796 3.28288 34.4531 0.552734C30.24 4.23726 25.9774 10.2854 24.3318 15.9544C23.8853 17.4269 23.6478 18.9571 23.6265 20.4985C23.6265 25.9083 26.46 29.4664 30.97 32.3483C32.0976 33.0597 33.2601 33.7115 34.4531 34.3012C35.6099 33.7261 36.6926 33.1257 37.701 32.4937C39.2302 31.568 40.6359 30.4442 41.8831 29.1504C42.9877 28.0129 43.8575 26.6604 44.4409 25.1732C45.0243 23.6859 45.3095 22.0941 45.2796 20.4921C45.2579 18.9029 45.0099 17.3253 44.5434 15.8091Z" fill="#E382D3"/>
<path d="M38.0969 44.8553C37.8678 45.7273 37.5549 46.5741 37.1627 47.3833C36.4287 48.9417 35.4624 50.3744 34.2983 51.6303C32.495 49.6948 31.1861 47.3354 30.4874 44.7605C30.3183 44.0978 30.229 43.4166 30.2214 42.7318C30.2214 40.3176 31.2855 38.7313 32.9868 37.4483C33.4078 37.133 33.8457 36.8418 34.2983 36.5762C34.7239 36.822 35.1369 37.0899 35.5357 37.3788C36.1239 37.8024 36.6544 38.3039 37.1132 38.8703C37.9765 39.9607 38.4306 41.3299 38.3939 42.7318C38.3824 43.4495 38.2827 44.163 38.0969 44.8553Z" fill="#E382D3"/>
<path d="M19.4815 38.9271C22.9089 36.81 25.8104 37.1576 28.8666 38.4847C28.6006 41.8659 27.5612 44.6593 24.1339 46.7765C20.7065 48.8937 15.1633 49.6268 11.606 49.1655C12.9361 45.5947 16.0542 41.0443 19.4815 38.9271Z" fill="#E382D3"/>
<path d="M49.5607 38.8957C46.0343 36.9492 43.1514 37.4484 40.1633 38.8957C40.5963 42.2579 41.7656 44.9944 45.2919 46.941C48.8183 48.8875 54.3862 49.3299 57.9188 48.6916C56.4278 45.222 53.0871 40.8359 49.5607 38.8957Z" fill="#E382D3"/>
</svg>
