<svg width="70" height="51" viewBox="0 0 70 51" fill="none" xmlns="http://www.w3.org/2000/svg">
<path d="M55.8302 13.2373C52.7265 13.9725 49.7196 15.0748 46.872 16.5214C47.2247 18.0467 47.3539 19.6159 47.2556 21.179C47.1032 23.7104 46.1636 26.129 44.5706 28.0904C42.9542 29.9706 40.9865 31.5109 38.7799 32.6232C37.7963 33.0727 36.3734 33.8156 36.3734 33.8156C37.5213 34.4269 38.7224 34.9305 39.9616 35.3203C43.1724 35.9447 52.6379 35.5576 58.7564 31.1809C64.875 26.8043 68.9767 18.1509 69.8057 11.5641C65.0956 11.5184 60.399 12.0807 55.8302 13.2373Z" fill="#E382D3"/>
<path d="M14.7574 13.2375C17.8611 13.9726 20.8679 15.075 23.7156 16.5215C23.3629 18.0468 23.2337 19.616 23.332 21.1791C23.4844 23.7106 24.4239 26.1291 26.017 28.0906C27.6334 29.9707 29.6011 31.511 31.8076 32.6233C32.7913 33.0728 34.2142 33.8158 34.2142 33.8158C33.0662 34.427 31.8651 34.9306 30.626 35.3204C27.4152 35.9448 17.9497 35.5577 11.8312 31.181C5.71262 26.8044 1.60472 18.1573 0.769531 11.5642C5.4838 11.5174 10.1846 12.0797 14.7574 13.2375Z" fill="#E382D3"/>
<path d="M45.3129 15.304C44.7021 13.3264 43.8719 11.4247 42.8383 9.63501C40.8213 6.10511 38.2492 2.92951 35.2226 0.232422C31.0095 3.87234 26.747 9.84729 25.1013 15.4476C24.6548 16.9023 24.4173 18.414 24.3961 19.9367C24.3961 25.281 27.2295 28.7961 31.7395 31.6431C32.8671 32.3458 34.0296 32.9897 35.2226 33.5723C36.3795 33.0041 37.4621 32.411 38.4705 31.7867C39.9997 30.8721 41.4054 29.762 42.6527 28.4839C43.7572 27.3601 44.627 26.024 45.2104 24.5548C45.7938 23.0855 46.0791 21.513 46.0491 19.9304C46.0274 18.3604 45.7794 16.8019 45.3129 15.304Z" fill="#E382D3"/>
<path d="M38.8664 43.9987C38.6373 44.8602 38.3244 45.6967 37.9323 46.4961C37.1982 48.0357 36.2319 49.451 35.0679 50.6917C33.2645 48.7796 31.9557 46.4488 31.2569 43.9051C31.0879 43.2504 30.9985 42.5774 30.9909 41.9009C30.9909 39.5159 32.055 37.9488 33.7563 36.6814C34.1773 36.3699 34.6152 36.0823 35.0679 35.8198C35.4934 36.0627 35.9064 36.3273 36.3052 36.6127C36.8934 37.0312 37.4239 37.5267 37.8828 38.0862C38.746 39.1634 39.2001 40.516 39.1634 41.9009C39.152 42.61 39.0522 43.3148 38.8664 43.9987Z" fill="#E382D3"/>
<path d="M20.2511 38.1422C23.6784 36.0507 26.5799 36.3941 29.6361 37.7052C29.3701 41.0454 28.3308 43.805 24.9034 45.8966C21.476 47.9881 15.9328 48.7123 12.3755 48.2566C13.7057 44.729 16.8237 40.2338 20.2511 38.1422Z" fill="#E382D3"/>
<path d="M50.3302 38.1112C46.8039 36.1882 43.9209 36.6814 40.9328 38.1112C41.3659 41.4327 42.5351 44.1361 46.0615 46.059C49.5878 47.982 55.1558 48.4191 58.6883 47.7885C57.1973 44.3608 53.8566 40.0279 50.3302 38.1112Z" fill="#E382D3"/>
</svg>
